<svg width="1024" height="1024" viewBox="0 0 1024 1024" fill="none" xmlns="http://www.w3.org/2000/svg">

  <defs>
    <linearGradient id="fieldFill" x1="512" y1="80" x2="512" y2="940" gradientUnits="userSpaceOnUse">
      <stop stop-color="#0B1714"/>
      <stop offset="0.55" stop-color="#07110F"/>
      <stop offset="1" stop-color="#030806"/>
    </linearGradient>
    <radialGradient id="fieldLift" cx="0" cy="0" r="1" gradientUnits="userSpaceOnUse" gradientTransform="translate(690 360) rotate(126) scale(520 500)">
      <stop stop-color="#1C5B51" stop-opacity="0.105"/>
      <stop offset="0.45" stop-color="#8FD3C8" stop-opacity="0.035"/>
      <stop offset="1" stop-color="#030806" stop-opacity="0"/>
    </radialGradient>
    <linearGradient id="inactiveFill" x1="256" y1="198" x2="642" y2="820" gradientUnits="userSpaceOnUse">
      <stop stop-color="#667A72"/>
      <stop offset="0.55" stop-color="#4C625A"/>
      <stop offset="1" stop-color="#384F47"/>
    </linearGradient>
    <linearGradient id="legFill" x1="545" y1="566" x2="824" y2="846" gradientUnits="userSpaceOnUse">
      <stop stop-color="#72877F"/>
      <stop offset="0.46" stop-color="#5B7168"/>
      <stop offset="1" stop-color="#465F57"/>
    </linearGradient>
    <linearGradient id="inactiveSheen" x1="278" y1="204" x2="432" y2="474" gradientUnits="userSpaceOnUse">
      <stop stop-color="#FFFFFF" stop-opacity="0.115"/>
      <stop offset="0.52" stop-color="#FFFFFF" stop-opacity="0.035"/>
      <stop offset="1" stop-color="#FFFFFF" stop-opacity="0"/>
    </linearGradient>
    <linearGradient id="legSheen" x1="555" y1="550" x2="760" y2="758" gradientUnits="userSpaceOnUse">
      <stop stop-color="#FFFFFF" stop-opacity="0.095"/>
      <stop offset="0.50" stop-color="#FFFFFF" stop-opacity="0.032"/>
      <stop offset="1" stop-color="#FFFFFF" stop-opacity="0"/>
    </linearGradient>
    <linearGradient id="inactiveStroke" x1="290" y1="194" x2="758" y2="835" gradientUnits="userSpaceOnUse">
      <stop stop-color="#E4F4EF" stop-opacity="0.30"/>
      <stop offset="0.50" stop-color="#A8C8BF" stop-opacity="0.18"/>
      <stop offset="1" stop-color="#03100D" stop-opacity="0.64"/>
    </linearGradient>
    <linearGradient id="legStroke" x1="548" y1="558" x2="827" y2="844" gradientUnits="userSpaceOnUse">
      <stop stop-color="#D7F0EA" stop-opacity="0.28"/>
      <stop offset="0.52" stop-color="#A3C7BE" stop-opacity="0.19"/>
      <stop offset="1" stop-color="#03100D" stop-opacity="0.66"/>
    </linearGradient>
    <linearGradient id="activeFill" x1="568" y1="196" x2="828" y2="525" gradientUnits="userSpaceOnUse">
      <stop stop-color="#A5DDD4"/>
      <stop offset="0.52" stop-color="#8FD3C8"/>
      <stop offset="1" stop-color="#72BDB1"/>
    </linearGradient>
    <linearGradient id="activeSheen" x1="570" y1="195" x2="760" y2="474" gradientUnits="userSpaceOnUse">
      <stop stop-color="#FFFFFF" stop-opacity="0.18"/>
      <stop offset="0.42" stop-color="#FFFFFF" stop-opacity="0.052"/>
      <stop offset="1" stop-color="#FFFFFF" stop-opacity="0"/>
    </linearGradient>
    <linearGradient id="activeStroke" x1="570" y1="198" x2="806" y2="528" gradientUnits="userSpaceOnUse">
      <stop stop-color="#F2FFFC" stop-opacity="0.70"/>
      <stop offset="0.48" stop-color="#BEE8E0" stop-opacity="0.44"/>
      <stop offset="1" stop-color="#5DAFA4" stop-opacity="0.40"/>
    </linearGradient>
    <linearGradient id="cursorFill" x1="575" y1="354" x2="617" y2="450" gradientUnits="userSpaceOnUse">
      <stop stop-color="#082A26"/>
      <stop offset="1" stop-color="#123C37"/>
    </linearGradient>
    <radialGradient id="dotFill" cx="0" cy="0" r="1" gradientUnits="userSpaceOnUse" gradientTransform="translate(286 750) rotate(52.125) scale(38 38)">
      <stop stop-color="#E6BC66"/>
      <stop offset="0.46" stop-color="#D49A43"/>
      <stop offset="1" stop-color="#8B5A24"/>
    </radialGradient>
  </defs>

  <g id="active-pane" transform="translate(512 512) scale(1.06) translate(-512 -512)">
    <path d="M586 198H682C771.47 198 844 270.53 844 360V383C844 450.22 802.35 506.02 737.2 525.5C721.8 530.1 705.7 529 690 529H586C561.147 529 541 508.853 541 484V243C541 218.147 561.147 198 586 198Z" fill="#03110E" opacity="0.07" transform="translate(0 16)"/>
    <path d="M586 198H682C771.47 198 844 270.53 844 360V383C844 450.22 802.35 506.02 737.2 525.5C721.8 530.1 705.7 529 690 529H586C561.147 529 541 508.853 541 484V243C541 218.147 561.147 198 586 198Z" fill="#03110E" opacity="0.12" transform="translate(0 8)"/>
    <path d="M586 198H682C771.47 198 844 270.53 844 360V383C844 450.22 802.35 506.02 737.2 525.5C721.8 530.1 705.7 529 690 529H586C561.147 529 541 508.853 541 484V243C541 218.147 561.147 198 586 198Z" stroke="#83CFC3" stroke-opacity="0.045" stroke-width="10"/>
    <path d="M586 198H682C771.47 198 844 270.53 844 360V383C844 450.22 802.35 506.02 737.2 525.5C721.8 530.1 705.7 529 690 529H586C561.147 529 541 508.853 541 484V243C541 218.147 561.147 198 586 198Z" fill="url(#activeFill)"/>
    <path d="M586 198H682C771.47 198 844 270.53 844 360V383C844 450.22 802.35 506.02 737.2 525.5C721.8 530.1 705.7 529 690 529H586C561.147 529 541 508.853 541 484V243C541 218.147 561.147 198 586 198Z" fill="url(#activeSheen)"/>
    <path d="M586 198H682C771.47 198 844 270.53 844 360V383C844 450.22 802.35 506.02 737.2 525.5C721.8 530.1 705.7 529 690 529H586C561.147 529 541 508.853 541 484V243C541 218.147 561.147 198 586 198Z" stroke="url(#activeStroke)" stroke-width="4"/>
  </g>

</svg>
