<svg width="1024" height="1024" viewBox="0 0 1024 1024" fill="none" xmlns="http://www.w3.org/2000/svg">

  <defs>
    <linearGradient id="fieldFill" x1="512" y1="80" x2="512" y2="940" gradientUnits="userSpaceOnUse">
      <stop stop-color="#0B1714"/>
      <stop offset="0.55" stop-color="#07110F"/>
      <stop offset="1" stop-color="#030806"/>
    </linearGradient>
    <radialGradient id="fieldLift" cx="0" cy="0" r="1" gradientUnits="userSpaceOnUse" gradientTransform="translate(690 360) rotate(126) scale(520 500)">
      <stop stop-color="#1C5B51" stop-opacity="0.105"/>
      <stop offset="0.45" stop-color="#8FD3C8" stop-opacity="0.035"/>
      <stop offset="1" stop-color="#030806" stop-opacity="0"/>
    </radialGradient>
    <linearGradient id="inactiveFill" x1="256" y1="198" x2="642" y2="820" gradientUnits="userSpaceOnUse">
      <stop stop-color="#667A72"/>
      <stop offset="0.55" stop-color="#4C625A"/>
      <stop offset="1" stop-color="#384F47"/>
    </linearGradient>
    <linearGradient id="legFill" x1="545" y1="566" x2="824" y2="846" gradientUnits="userSpaceOnUse">
      <stop stop-color="#72877F"/>
      <stop offset="0.46" stop-color="#5B7168"/>
      <stop offset="1" stop-color="#465F57"/>
    </linearGradient>
    <linearGradient id="inactiveSheen" x1="278" y1="204" x2="432" y2="474" gradientUnits="userSpaceOnUse">
      <stop stop-color="#FFFFFF" stop-opacity="0.115"/>
      <stop offset="0.52" stop-color="#FFFFFF" stop-opacity="0.035"/>
      <stop offset="1" stop-color="#FFFFFF" stop-opacity="0"/>
    </linearGradient>
    <linearGradient id="legSheen" x1="555" y1="550" x2="760" y2="758" gradientUnits="userSpaceOnUse">
      <stop stop-color="#FFFFFF" stop-opacity="0.095"/>
      <stop offset="0.50" stop-color="#FFFFFF" stop-opacity="0.032"/>
      <stop offset="1" stop-color="#FFFFFF" stop-opacity="0"/>
    </linearGradient>
    <linearGradient id="inactiveStroke" x1="290" y1="194" x2="758" y2="835" gradientUnits="userSpaceOnUse">
      <stop stop-color="#E4F4EF" stop-opacity="0.30"/>
      <stop offset="0.50" stop-color="#A8C8BF" stop-opacity="0.18"/>
      <stop offset="1" stop-color="#03100D" stop-opacity="0.64"/>
    </linearGradient>
    <linearGradient id="legStroke" x1="548" y1="558" x2="827" y2="844" gradientUnits="userSpaceOnUse">
      <stop stop-color="#D7F0EA" stop-opacity="0.28"/>
      <stop offset="0.52" stop-color="#A3C7BE" stop-opacity="0.19"/>
      <stop offset="1" stop-color="#03100D" stop-opacity="0.66"/>
    </linearGradient>
    <linearGradient id="activeFill" x1="568" y1="196" x2="828" y2="525" gradientUnits="userSpaceOnUse">
      <stop stop-color="#A5DDD4"/>
      <stop offset="0.52" stop-color="#8FD3C8"/>
      <stop offset="1" stop-color="#72BDB1"/>
    </linearGradient>
    <linearGradient id="activeSheen" x1="570" y1="195" x2="760" y2="474" gradientUnits="userSpaceOnUse">
      <stop stop-color="#FFFFFF" stop-opacity="0.18"/>
      <stop offset="0.42" stop-color="#FFFFFF" stop-opacity="0.052"/>
      <stop offset="1" stop-color="#FFFFFF" stop-opacity="0"/>
    </linearGradient>
    <linearGradient id="activeStroke" x1="570" y1="198" x2="806" y2="528" gradientUnits="userSpaceOnUse">
      <stop stop-color="#F2FFFC" stop-opacity="0.70"/>
      <stop offset="0.48" stop-color="#BEE8E0" stop-opacity="0.44"/>
      <stop offset="1" stop-color="#5DAFA4" stop-opacity="0.40"/>
    </linearGradient>
    <linearGradient id="cursorFill" x1="575" y1="354" x2="617" y2="450" gradientUnits="userSpaceOnUse">
      <stop stop-color="#082A26"/>
      <stop offset="1" stop-color="#123C37"/>
    </linearGradient>
    <radialGradient id="dotFill" cx="0" cy="0" r="1" gradientUnits="userSpaceOnUse" gradientTransform="translate(286 750) rotate(52.125) scale(38 38)">
      <stop stop-color="#F6DD98"/>
      <stop offset="0.45" stop-color="#E6B85A"/>
      <stop offset="1" stop-color="#A56A2B"/>
    </radialGradient>
  </defs>

  <rect width="1024" height="1024" fill="url(#fieldFill)"/>
  <rect width="1024" height="1024" fill="url(#fieldLift)"/>


  <g id="contact-shadows" transform="translate(512 512) scale(1.06) translate(-512 -512)">
    <g opacity="0.13" transform="translate(0 17)">
      <path d="M313 198H457C481.853 198 502 218.147 502 243V484C502 508.853 481.853 529 457 529H267C242.147 529 222 508.853 222 484V293C222 240.533 260.533 198 313 198Z" fill="#020706"/><path d="M222 613C222 588.147 242.147 568 267 568H457C481.853 568 502 588.147 502 613V793C502 817.853 481.853 838 457 838H303C258.265 838 222 801.735 222 757V613Z" fill="#020706"/><path d="M586 568H638.589C651.186 568 663.267 573.003 672.174 581.91L822.819 732.555C836.383 746.119 844 764.514 844 783.697V793C844 817.853 823.853 838 799 838H586C561.147 838 541 817.853 541 793V613C541 588.147 561.147 568 586 568Z" fill="#020706"/>
    </g>
    <g opacity="0.095" transform="translate(0 9)">
      <path d="M313 198H457C481.853 198 502 218.147 502 243V484C502 508.853 481.853 529 457 529H267C242.147 529 222 508.853 222 484V293C222 240.533 260.533 198 313 198Z" fill="#020706"/><path d="M222 613C222 588.147 242.147 568 267 568H457C481.853 568 502 588.147 502 613V793C502 817.853 481.853 838 457 838H303C258.265 838 222 801.735 222 757V613Z" fill="#020706"/><path d="M586 568H638.589C651.186 568 663.267 573.003 672.174 581.91L822.819 732.555C836.383 746.119 844 764.514 844 783.697V793C844 817.853 823.853 838 799 838H586C561.147 838 541 817.853 541 793V613C541 588.147 561.147 568 586 568Z" fill="#020706"/>
    </g>
    <g opacity="0.060" transform="translate(0 4)">
      <path d="M313 198H457C481.853 198 502 218.147 502 243V484C502 508.853 481.853 529 457 529H267C242.147 529 222 508.853 222 484V293C222 240.533 260.533 198 313 198Z" fill="#020706"/><path d="M222 613C222 588.147 242.147 568 267 568H457C481.853 568 502 588.147 502 613V793C502 817.853 481.853 838 457 838H303C258.265 838 222 801.735 222 757V613Z" fill="#020706"/><path d="M586 568H638.589C651.186 568 663.267 573.003 672.174 581.91L822.819 732.555C836.383 746.119 844 764.514 844 783.697V793C844 817.853 823.853 838 799 838H586C561.147 838 541 817.853 541 793V613C541 588.147 561.147 568 586 568Z" fill="#020706"/>
    </g>
  </g>


  <g id="inactive-panes" transform="translate(512 512) scale(1.06) translate(-512 -512)">
    <path d="M313 198H457C481.853 198 502 218.147 502 243V484C502 508.853 481.853 529 457 529H267C242.147 529 222 508.853 222 484V293C222 240.533 260.533 198 313 198Z" fill="url(#inactiveFill)"/>
    <path d="M222 613C222 588.147 242.147 568 267 568H457C481.853 568 502 588.147 502 613V793C502 817.853 481.853 838 457 838H303C258.265 838 222 801.735 222 757V613Z" fill="url(#inactiveFill)"/>
    <path d="M586 568H638.589C651.186 568 663.267 573.003 672.174 581.91L822.819 732.555C836.383 746.119 844 764.514 844 783.697V793C844 817.853 823.853 838 799 838H586C561.147 838 541 817.853 541 793V613C541 588.147 561.147 568 586 568Z" fill="url(#legFill)"/>
    <path d="M313 198H457C481.853 198 502 218.147 502 243V484C502 508.853 481.853 529 457 529H267C242.147 529 222 508.853 222 484V293C222 240.533 260.533 198 313 198Z" fill="url(#inactiveSheen)"/>
    <path d="M222 613C222 588.147 242.147 568 267 568H457C481.853 568 502 588.147 502 613V793C502 817.853 481.853 838 457 838H303C258.265 838 222 801.735 222 757V613Z" fill="url(#inactiveSheen)" opacity="0.74"/>
    <path d="M586 568H638.589C651.186 568 663.267 573.003 672.174 581.91L822.819 732.555C836.383 746.119 844 764.514 844 783.697V793C844 817.853 823.853 838 799 838H586C561.147 838 541 817.853 541 793V613C541 588.147 561.147 568 586 568Z" fill="url(#legSheen)" opacity="0.78"/>
    <path d="M313 198H457C481.853 198 502 218.147 502 243V484C502 508.853 481.853 529 457 529H267C242.147 529 222 508.853 222 484V293C222 240.533 260.533 198 313 198Z" stroke="url(#inactiveStroke)" stroke-width="3.2"/>
    <path d="M222 613C222 588.147 242.147 568 267 568H457C481.853 568 502 588.147 502 613V793C502 817.853 481.853 838 457 838H303C258.265 838 222 801.735 222 757V613Z" stroke="url(#inactiveStroke)" stroke-width="3.2"/>
    <path d="M586 568H638.589C651.186 568 663.267 573.003 672.174 581.91L822.819 732.555C836.383 746.119 844 764.514 844 783.697V793C844 817.853 823.853 838 799 838H586C561.147 838 541 817.853 541 793V613C541 588.147 561.147 568 586 568Z" stroke="url(#legStroke)" stroke-width="4"/>
  </g>


  <g id="active-pane" transform="translate(512 512) scale(1.06) translate(-512 -512)">
    <path d="M586 198H682C771.47 198 844 270.53 844 360V383C844 450.22 802.35 506.02 737.2 525.5C721.8 530.1 705.7 529 690 529H586C561.147 529 541 508.853 541 484V243C541 218.147 561.147 198 586 198Z" fill="#03110E" opacity="0.07" transform="translate(0 16)"/>
    <path d="M586 198H682C771.47 198 844 270.53 844 360V383C844 450.22 802.35 506.02 737.2 525.5C721.8 530.1 705.7 529 690 529H586C561.147 529 541 508.853 541 484V243C541 218.147 561.147 198 586 198Z" fill="#03110E" opacity="0.12" transform="translate(0 8)"/>
    <path d="M586 198H682C771.47 198 844 270.53 844 360V383C844 450.22 802.35 506.02 737.2 525.5C721.8 530.1 705.7 529 690 529H586C561.147 529 541 508.853 541 484V243C541 218.147 561.147 198 586 198Z" stroke="#83CFC3" stroke-opacity="0.045" stroke-width="10"/>
    <path d="M586 198H682C771.47 198 844 270.53 844 360V383C844 450.22 802.35 506.02 737.2 525.5C721.8 530.1 705.7 529 690 529H586C561.147 529 541 508.853 541 484V243C541 218.147 561.147 198 586 198Z" fill="url(#activeFill)"/>
    <path d="M586 198H682C771.47 198 844 270.53 844 360V383C844 450.22 802.35 506.02 737.2 525.5C721.8 530.1 705.7 529 690 529H586C561.147 529 541 508.853 541 484V243C541 218.147 561.147 198 586 198Z" fill="url(#activeSheen)"/>
    <path d="M586 198H682C771.47 198 844 270.53 844 360V383C844 450.22 802.35 506.02 737.2 525.5C721.8 530.1 705.7 529 690 529H586C561.147 529 541 508.853 541 484V243C541 218.147 561.147 198 586 198Z" stroke="url(#activeStroke)" stroke-width="4"/>
  </g>


  <g id="cursor" transform="translate(512 512) scale(1.06) translate(-512 -512)">
    <rect x="575" y="354" width="42" height="96" rx="10" fill="url(#cursorFill)"/>
    <rect x="576" y="355" width="40" height="94" rx="9" stroke="#D4EAE4" stroke-opacity="0.28" stroke-width="1.8"/>
  </g>


  <g id="live-signal" transform="translate(512 512) scale(1.06) translate(-512 -512)">
    <circle cx="292" cy="765" r="25" fill="#030806" opacity="0.48"/>
    <circle cx="292" cy="758" r="24" fill="url(#dotFill)"/>
    <circle cx="285" cy="750" r="7.5" fill="#FFF4C8" opacity="0.48"/>
    <circle cx="292" cy="758" r="23" stroke="#F3C875" stroke-opacity="0.44" stroke-width="1.6"/>
  </g>

</svg>
